<svg xmlns="http://www.w3.org/2000/svg" style="display: none;">
  <symbol id="icon-all" viewBox="0 0 24 24">
    <path d="M3 3h18v18H3z"></path>
    <path d="M3 9h18"></path>
    <path d="M9 21V9"></path>
  </symbol>
  <symbol id="icon-doc" viewBox="0 0 24 24">
    <path d="M14 2H6a2 2 0 0 0-2 2v16a2 2 0 0 0 2 2h12a2 2 0 0 0 2-2V8z"></path>
    <path d="M14 3v5h5"></path>
    <line x1="16" y1="13" x2="8" y2="13"></line>
    <line x1="16" y1="17" x2="8" y2="17"></line>
  </symbol>
  <symbol id="icon-sheet" viewBox="0 0 24 24">
    <rect x="3" y="3" width="18" height="18" rx="2" ry="2"></rect>
    <line x1="3" y1="9" x2="21" y2="9"></line>
    <line x1="3" y1="15" x2="21" y2="15"></line>
    <line x1="9" y1="3" x2="9" y2="21"></line>
  </symbol>
  <symbol id="icon-slide" viewBox="0 0 24 24">
    <rect x="3" y="3" width="18" height="18" rx="2" ry="2"></rect>
    <rect x="7" y="7" width="10" height="10"></rect>
  </symbol>
  <symbol id="icon-folder" viewBox="0 0 24 24">
    <path d="M22 19a2 2 0 0 1-2 2H4a2 2 0 0 1-2-2V5a2 2 0 0 1 2-2h5l2 3h9a2 2 0 0 1 2 2z"></path>
  </symbol>
  <symbol id="icon-form" viewBox="0 0 24 24"> 
    <path d="M20 4H4c-1.1 0-2 .9-2 2v12c0 1.1.9 2 2 2h16c1.1 0 2-.9 2-2V6c0-1.1-.9-2-2-2zm-1 10H5v-2h14v2zm0-4H5v-2h14v2zm0-4H5V8h14v2z"/> 
  </symbol>
</svg>